<svg xmlns="http://www.w3.org/2000/svg">
    <symbol id="icon-chevron-right" viewBox="0 0 24 24">
        <path fill="currentColor" d="M8.59 16.59L13.17 12 8.59 7.41 10 6l6 6-6 6-1.41-1.41z"/>
    </symbol>
    <symbol id="icon-chevron-left" viewBox="0 0 24 24">
        <path fill="currentColor" d="M15.41 16.59L10.83 12l4.58-4.59L14 6l-6 6 6 6 1.41-1.41z"/>
    </symbol>
    <symbol id="icon-menu" viewBox="0 0 24 24">
        <path fill="currentColor" d="M3 18h18v-2H3v2zm0-5h18v-2H3v2zm0-7v2h18V6H3z"/>
    </symbol>
    <symbol id="icon-close" viewBox="0 0 24 24">
        <path fill="currentColor" d="M19 6.41L17.59 5 12 10.59 6.41 5 5 6.41 10.59 12 5 17.59 6.41 19 12 13.41 17.59 19 19 17.59 13.41 12z"/>
    </symbol>
    <symbol id="icon-sun" viewBox="0 0 24 24">
      <path fill="currentColor" d="M12 7c-2.76 0-5 2.24-5 5s2.24 5 5 5 5-2.24 5-5-2.24-5-5-5zm0 2a3 3 0 1 1 0 6 3 3 0 0 1 0-6zM2 13h2c.55 0 1-.45 1-1s-.45-1-1-1H2c-.55 0-1 .45-1 1s.45 1 1 1zm18 0h2c.55 0 1-.45 1-1s-.45-1-1-1h-2c-.55 0-1 .45-1 1s.45 1 1 1zM11 2v2c0 .55.45 1 1 1s1-.45 1-1V2c0-.55-.45-1-1-1s-1 .45-1 1zm0 18v2c0 .55.45 1 1 1s1-.45 1-1v-2c0-.55-.45-1-1-1s-1 .45-1 1zM5.99 4.58c-.39-.39-1.03-.39-1.41 0-.39.39-.39 1.03 0 1.41l1.06 1.06c.39.39 1.03.39 1.41 0s.39-1.03 0-1.41L5.99 4.58zm12.37 12.37c-.39-.39-1.03-.39-1.41 0-.39.39-.39 1.03 0 1.41l1.06 1.06c.39.39 1.03.39 1.41 0 .39-.39.39-1.03 0-1.41l-1.06-1.06zm1.06-10.96c.39-.39.39-1.03 0-1.41-.39-.39-1.03-.39-1.41 0l-1.06 1.06c-.39.39-.39 1.03 0 1.41s1.03.39 1.41 0l1.06-1.06zM7.05 18.36c.39-.39.39-1.03 0-1.41-.39-.39-1.03-.39-1.41 0l-1.06 1.06c-.39.39-.39 1.03 0 1.41s1.03.39 1.41 0l1.06-1.06z"/>
    </symbol>
    <symbol id="icon-moon" viewBox="0 0 24 24">
      <path stroke="currentColor" d="M21 12.79A9 9 0 1 1 11.21 3 7 7 0 0 0 21 12.79z"/>
    </symbol>
</svg>